<?xml version="1.0" standalone="no"?>
<!DOCTYPE svg PUBLIC "-//W3C//DTD SVG 20010904//EN"
 "http://www.w3.org/TR/2001/REC-SVG-20010904/DTD/svg10.dtd">
<svg version="1.0" xmlns="http://www.w3.org/2000/svg"
 width="1024.000000pt" height="1024.000000pt" viewBox="0 0 1024.000000 1024.000000"
 preserveAspectRatio="xMidYMid meet">

<g transform="translate(0.000000,1024.000000) scale(0.100000,-0.100000)"
fill="#000000" stroke="none">
<path d="M0 5120 l0 -5120 5120 0 5120 0 0 5120 0 5120 -5120 0 -5120 0 0
-5120z m1230 328 c41 -95 89 -207 108 -248 l33 -74 64 144 c34 80 83 190 108
245 l45 100 166 3 166 2 0 -495 0 -495 -105 -1 c-58 0 -120 -1 -137 -2 l-33
-1 -5 287 -5 286 -49 -112 c-27 -62 -68 -154 -92 -205 l-43 -93 -83 3 -83 3
-26 55 c-14 30 -55 125 -90 210 l-64 154 -3 -292 -2 -292 -38 0 c-20 0 -81 -3
-134 -7 l-98 -6 0 501 0 502 163 0 163 0 74 -172z m1635 -323 c101 -269 180
-494 176 -498 -4 -4 -70 -6 -147 -5 l-139 3 -29 83 -28 82 -171 -2 -170 -3
-24 -77 -24 -78 -144 0 c-80 0 -145 1 -145 3 0 5 197 545 285 780 l77 208 150
-3 150 -3 183 -490z m537 167 l3 -329 27 -40 c35 -54 85 -77 155 -71 61 5 98
28 128 79 19 32 20 55 23 362 l3 327 140 0 139 0 0 -312 c0 -333 -8 -405 -50
-488 -69 -135 -211 -210 -400 -210 -236 0 -387 109 -435 312 -11 49 -15 135
-15 381 l0 317 139 0 140 0 3 -328z m1528 218 l0 -110 -230 0 -230 0 0 -80 0
-80 210 0 210 0 0 -110 0 -110 -210 0 -210 0 0 -85 0 -85 235 0 236 0 -3 -112
-3 -113 -370 0 -370 0 -3 498 -2 497 370 0 370 0 0 -110z m821 84 c67 -31 124
-87 156 -152 25 -50 28 -68 28 -152 0 -84 -3 -102 -28 -152 -26 -53 -62 -93
-116 -129 l-24 -15 85 -150 c89 -154 118 -209 118 -219 0 -3 -67 -5 -149 -5
l-148 0 -83 153 c-45 83 -87 158 -93 165 -7 8 -29 12 -66 10 l-56 -3 -2 -160
-3 -160 -138 2 -137 2 -3 496 -2 496 307 -3 c290 -3 311 -4 354 -24z m1385 11
c27 -8 68 -30 91 -50 57 -48 76 -103 71 -199 -3 -64 -8 -81 -34 -118 -16 -24
-46 -52 -67 -63 -38 -20 -48 -35 -24 -35 31 0 107 -61 128 -102 27 -52 36
-164 20 -226 -16 -57 -70 -115 -139 -149 l-57 -28 -323 -5 c-178 -3 -326 -3
-328 -1 -2 2 -4 226 -4 498 l0 493 308 0 c243 0 319 -3 358 -15z m1089 -480
c100 -269 181 -492 179 -495 -1 -3 -66 -5 -145 -5 l-143 0 -14 40 c-8 22 -21
59 -29 83 l-15 42 -171 -2 -171 -3 -23 -76 -23 -76 -92 -7 c-125 -8 -186 -8
-192 3 -6 8 97 296 274 769 l84 223 149 -3 150 -3 182 -490z m937 468 c64 -30
124 -87 156 -147 24 -45 27 -62 27 -151 0 -80 -4 -109 -21 -145 -22 -47 -69
-102 -118 -136 l-28 -20 101 -177 c56 -97 101 -181 101 -186 0 -7 -51 -11
-149 -11 l-149 0 -68 128 c-110 208 -105 202 -169 202 l-55 0 0 -160 0 -160
-87 -2 c-49 -1 -113 -2 -143 -3 l-55 0 -3 498 -2 498 307 -3 c292 -3 310 -4
355 -25z m547 -4859 c27 -63 90 -123 156 -151 25 -10 45 -20 45 -23 0 -3 -25
-16 -56 -29 -63 -27 -123 -90 -151 -156 -10 -25 -20 -45 -23 -45 -3 0 -16 25
-29 56 -27 63 -90 123 -156 151 -25 10 -45 20 -45 23 0 3 25 16 56 29 63 27
123 90 151 156 10 25 20 45 23 45 3 0 16 -25 29 -56z"/>
<path d="M2481 5187 c-24 -83 -46 -158 -49 -164 -3 -10 21 -13 98 -13 92 0
101 2 96 18 -16 55 -97 312 -99 312 -1 0 -22 -69 -46 -153z"/>
<path d="M5377 5393 c-9 -8 -9 -82 0 -162 l6 -63 107 4 c89 2 112 6 129 22 32
29 44 86 29 132 -19 57 -59 74 -174 74 -50 0 -94 -3 -97 -7z"/>
<path d="M6750 5325 l0 -85 106 0 c103 0 106 1 135 29 35 35 38 77 8 115 -20
25 -23 26 -135 26 l-114 0 0 -85z"/>
<path d="M6828 5033 l-78 -4 0 -95 0 -96 126 4 c124 3 126 3 150 31 36 42 28
117 -15 144 -24 15 -89 21 -183 16z"/>
<path d="M7880 5330 c0 -8 -19 -76 -41 -150 -23 -74 -44 -143 -46 -152 -5 -16
4 -18 97 -18 80 0 101 3 97 13 -3 7 -24 78 -48 158 -39 134 -59 183 -59 149z"/>
<path d="M8790 5285 l0 -115 105 0 c100 0 106 1 135 28 57 50 51 144 -12 182
-27 16 -51 20 -130 20 l-98 0 0 -115z"/>
</g>
</svg>
